<svg xmlns="http://www.w3.org/2000/svg" viewBox="0 0 639.5 120"><defs><style>.cls-1{fill:#fff;}</style></defs><g id="Layer_2" data-name="Layer 2"><g id="Layer_1-2" data-name="Layer 1"><path class="cls-1" d="M559.24,79.08q-7.07,0-10.88,3.09a9.39,9.39,0,0,0-3.83,7.58A8.54,8.54,0,0,0,548.21,97a13.92,13.92,0,0,0,8.47,2.7,18.08,18.08,0,0,0,12.83-5.18,16.82,16.82,0,0,0,4.88-11.8,40.69,40.69,0,0,0-7.13-2.63A31.19,31.19,0,0,0,559.24,79.08Z"/><path class="cls-1" d="M166.44,79.08q-7,0-10.88,3.09a9.38,9.38,0,0,0-3.82,7.58A8.53,8.53,0,0,0,155.41,97a14,14,0,0,0,8.48,2.7,18.13,18.13,0,0,0,12.83-5.18,16.75,16.75,0,0,0,4.87-11.8,40.59,40.59,0,0,0-7.12-2.63A31.27,31.27,0,0,0,166.44,79.08Z"/><path class="cls-1" d="M0,0V120H639.5V0ZM125.33,112.6H105.67V69.77q0-15-12.3-15a13.6,13.6,0,0,0-6.9,1.73,15.32,15.32,0,0,0-5,4.66,23,23,0,0,0-3.15,7,32.6,32.6,0,0,0-1.12,8.72V112.6H57.51V69.77q0-15-12.9-15A12.5,12.5,0,0,0,38,56.47a15,15,0,0,0-4.8,4.66,22.58,22.58,0,0,0-3,7,34.33,34.33,0,0,0-1.06,8.72V112.6H9.5V39H28v9.62h1.2a25.84,25.84,0,0,1,9.38-8.72,26.53,26.53,0,0,1,13.13-3.3q8.4,0,14.1,3.9a22,22,0,0,1,8.11,9.62,30.29,30.29,0,0,1,9.75-9.54,28.1,28.1,0,0,1,15.3-4,29,29,0,0,1,11.71,2.18,21.78,21.78,0,0,1,8.17,6.08,26.69,26.69,0,0,1,4.88,9.39,41.34,41.34,0,0,1,1.65,11.95Zm75.62,0H181.59v-7.82h-1.2a33,33,0,0,1-8.32,7.21q-4.87,3-12.53,3a30.46,30.46,0,0,1-10.73-1.88,27.93,27.93,0,0,1-8.78-5.18,23.22,23.22,0,0,1-5.85-8,24.55,24.55,0,0,1-2.1-10.22,23.07,23.07,0,0,1,2.25-10.29,23.52,23.52,0,0,1,6.3-7.89,28.45,28.45,0,0,1,9.53-5,39.53,39.53,0,0,1,11.93-1.73,51.09,51.09,0,0,1,11.85,1.13,56,56,0,0,1,7.65,2.33V66a12,12,0,0,0-4.65-9.69,17.53,17.53,0,0,0-11.55-3.83q-10.2,0-17.25,8.56l-14.26-9.77q11.7-14.72,32-14.72,17.1,0,26.11,8t9,23.82Zm53.94-56.88a23.09,23.09,0,0,0-5.33-.53,16.71,16.71,0,0,0-7.35,1.59,16,16,0,0,0-5.63,4.46A21,21,0,0,0,233,68a26.53,26.53,0,0,0-1.27,8.38V112.6H212.05V39h18.46V49.18h1.2a19,19,0,0,1,3.6-5,26.41,26.41,0,0,1,5-3.93,28.6,28.6,0,0,1,6-2.7,20.8,20.8,0,0,1,6.38-1,23.65,23.65,0,0,1,6.68.83,17,17,0,0,1,4.72,2.17l-5.25,17.58A18.79,18.79,0,0,0,254.89,55.72ZM323.83,100a24.47,24.47,0,0,1-6.38,7.74,31.07,31.07,0,0,1-9.9,5.34,39.94,39.94,0,0,1-12.83,2,42.12,42.12,0,0,1-12.83-1.8,35.39,35.39,0,0,1-9.75-4.74,30.5,30.5,0,0,1-7-6.76A32.11,32.11,0,0,1,260.81,94l17.56-7.51a19,19,0,0,0,6.83,8.49,17.11,17.11,0,0,0,9.52,2.78,16.2,16.2,0,0,0,8.56-2q3.15-2,3.15-4.66a5.77,5.77,0,0,0-2.63-4.89q-2.62-1.87-9.08-3.38l-10.35-2.25a35.7,35.7,0,0,1-7.13-2.41,27.84,27.84,0,0,1-6.67-4.2,21.21,21.21,0,0,1-4.95-6.17,17.27,17.27,0,0,1-1.95-8.41A19.56,19.56,0,0,1,266,49.78a21.83,21.83,0,0,1,6.38-7.14,30.5,30.5,0,0,1,9.52-4.5,42.14,42.14,0,0,1,11.78-1.58,41.41,41.41,0,0,1,18.76,4.13,25.45,25.45,0,0,1,12.15,13.15l-16.95,6.91a13.06,13.06,0,0,0-6.15-6.31,18.6,18.6,0,0,0-8.11-1.95A15.06,15.06,0,0,0,286,54.21c-2.1,1.16-3.15,2.63-3.15,4.44a4.55,4.55,0,0,0,2.63,4.06,30.26,30.26,0,0,0,7.12,2.7l11.26,2.7q11.25,2.72,16.72,8.65a20,20,0,0,1,5.48,14A19.69,19.69,0,0,1,323.83,100Zm66.84,9.09Q382,115,369.14,115a40.92,40.92,0,0,1-15.68-2.93,36.43,36.43,0,0,1-12.3-8.19,38.09,38.09,0,0,1-8.11-12.4,41,41,0,0,1-2.92-15.7A41.61,41.61,0,0,1,333.05,60a36.41,36.41,0,0,1,20.41-20.51,40.73,40.73,0,0,1,15.68-2.93q12.75,0,21.45,5.86A34.74,34.74,0,0,1,403.35,57.6l-18,7.51a19.38,19.38,0,0,0-6.52-7.74,17.78,17.78,0,0,0-10-2.63,18.23,18.23,0,0,0-7.35,1.5,19,19,0,0,0-6.08,4.21,19.29,19.29,0,0,0-4.13,6.61,26.07,26.07,0,0,0,0,17.43,19.33,19.33,0,0,0,4.13,6.62,18.82,18.82,0,0,0,6.08,4.2,18.07,18.07,0,0,0,7.35,1.51A18.76,18.76,0,0,0,379.27,94a19.4,19.4,0,0,0,6.82-8l18,7.81A41.12,41.12,0,0,1,390.67,109.06Zm90.85,3.54H461.86V70.37q0-7.66-3.6-11.65t-10.05-4a14.75,14.75,0,0,0-7.2,1.73,16.06,16.06,0,0,0-5.33,4.73,22.13,22.13,0,0,0-3.3,7,31.1,31.1,0,0,0-1.13,8.49V112.6H411.6V5h19.65V35.2l-1.2,13.38h1.2a24.32,24.32,0,0,1,9.08-8.64,26.26,26.26,0,0,1,13.28-3.38q14.25,0,21.08,8.41t6.83,23Zm32.7-3.7a12.56,12.56,0,0,1-9.15,3.7,12.84,12.84,0,0,1-9.23-3.7A12,12,0,0,1,492,100a11.73,11.73,0,0,1,3.82-8.85,13,13,0,0,1,9.23-3.63,12.66,12.66,0,0,1,9.15,3.63A11.86,11.86,0,0,1,518,100,12.09,12.09,0,0,1,514.22,108.9Zm79.52,3.7H574.39v-7.82h-1.2a33,33,0,0,1-8.33,7.21q-4.87,3-12.53,3a30.4,30.4,0,0,1-10.72-1.88,27.82,27.82,0,0,1-8.78-5.18,23.22,23.22,0,0,1-5.85-8,24.55,24.55,0,0,1-2.1-10.22,23.07,23.07,0,0,1,2.25-10.29,23.52,23.52,0,0,1,6.3-7.89,28.36,28.36,0,0,1,9.53-5,39.47,39.47,0,0,1,11.92-1.73,51.13,51.13,0,0,1,11.86,1.13,56,56,0,0,1,7.65,2.33V66a12,12,0,0,0-4.65-9.69,17.55,17.55,0,0,0-11.55-3.83q-10.22,0-17.26,8.56l-14.25-9.77q11.7-14.72,32-14.72,17.1,0,26.1,8t9,23.82Zm30.76,0H604.85V5H624.5Z"/></g></g></svg>